<?xml version="1.0" standalone="no"?>
<!DOCTYPE svg PUBLIC "-//W3C//DTD SVG 20010904//EN"
 "http://www.w3.org/TR/2001/REC-SVG-20010904/DTD/svg10.dtd">
<svg version="1.0" xmlns="http://www.w3.org/2000/svg"
 width="401.000000pt" height="344.000000pt" viewBox="0 0 401.000000 344.000000"
 preserveAspectRatio="xMidYMid meet">

<g transform="translate(0.000000,344.000000) scale(0.100000,-0.100000)"
fill="#000000" stroke="none">
<path d="M2113 3429 c-279 -19 -443 -80 -582 -218 -120 -118 -269 -357 -494
-791 -113 -218 -140 -304 -141 -435 -1 -126 24 -203 94 -296 76 -102 183 -175
445 -306 134 -67 240 -135 254 -162 23 -43 12 -90 -45 -194 -83 -150 -118
-193 -189 -227 -67 -33 -179 -50 -346 -52 -124 -1 -154 13 -144 70 3 21 51
132 105 247 55 116 100 219 100 228 0 9 -11 19 -25 23 -39 10 -720 -25 -763
-39 -36 -12 -41 -20 -144 -225 -180 -358 -231 -512 -232 -697 -1 -95 2 -117
22 -160 41 -90 107 -140 222 -171 137 -37 330 -21 1090 87 447 64 604 122 765
284 113 113 235 310 430 690 127 249 146 403 68 558 -58 116 -144 179 -437
322 -180 88 -228 116 -272 159 -52 50 -54 54 -54 105 0 44 9 70 60 170 78 154
129 224 188 258 42 25 57 28 172 31 241 8 243 -9 49 -401 -49 -97 -86 -184
-83 -191 9 -23 43 -24 374 -20 401 6 416 7 452 46 33 36 209 382 272 535 88
213 115 384 81 509 -40 148 -175 233 -419 264 -94 12 -695 11 -873 -1z"/>
</g>
</svg>
